<svg width="13" height="13" viewBox="0 0 13 13" fill="none" xmlns="http://www.w3.org/2000/svg">
<path d="M7.6497 6.49987L12.7618 1.38778C13.0794 1.07044 13.0794 0.555544 12.7618 0.238206C12.4442 -0.0794021 11.9298 -0.0794021 11.6122 0.238206L6.50014 5.3503L1.38778 0.238206C1.07017 -0.0794021 0.555815 -0.0794021 0.238206 0.238206C-0.0794021 0.555544 -0.0794021 1.07044 0.238206 1.38778L5.35057 6.49987L0.238206 11.612C-0.0794021 11.9293 -0.0794021 12.4442 0.238206 12.7615C0.397011 12.9201 0.605136 12.9995 0.812991 12.9995C1.02085 12.9995 1.22897 12.9201 1.38778 12.7613L6.50014 7.64916L11.6122 12.7613C11.771 12.9201 11.9792 12.9995 12.187 12.9995C12.3949 12.9995 12.603 12.9201 12.7618 12.7613C13.0794 12.4439 13.0794 11.929 12.7618 11.6117L7.6497 6.49987Z" fill="black"/>
</svg>
