<svg width="40" height="44" viewBox="0 0 40 44" fill="none" xmlns="http://www.w3.org/2000/svg">
<path d="M38.659 25.6852C39.3966 24.5781 39.7656 23.1969 39.7656 22C39.7656 20.1957 38.9641 18.5193 37.5887 17.3825C37.893 16.6551 38.0469 15.8986 38.0469 15.125C38.0469 12.7312 36.6499 10.5013 34.5729 9.46C34.888 6.8463 33.1849 4.45053 30.661 3.83943C29.6731 1.55581 27.4744 0 25.1562 0C22.9984 0 21.063 1.25864 20 3.09512C18.937 1.25864 17.0016 0 14.8438 0C12.5254 0 10.3267 1.55581 9.33902 3.83952C6.8 4.45448 5.11288 6.8622 5.42715 9.46C3.35021 10.5012 1.95312 12.7312 1.95312 15.125C1.95312 15.8986 2.10695 16.6551 2.41134 17.3825C1.03591 18.5194 0.234375 20.1957 0.234375 22C0.234375 23.2031 0.606484 24.5826 1.34099 25.6851C0.623242 26.6983 0.234375 27.8991 0.234375 29.1328C0.234375 30.7326 0.883031 32.2566 2.03038 33.3883C1.44051 36.954 4.28418 40.5625 7.96875 40.5625C7.99539 40.5625 8.0216 40.5621 8.0473 40.5613C9.2689 42.6687 11.5364 44 13.9844 44C16.5357 44 18.8154 42.4686 20 40.2622C21.1846 42.4686 23.4643 44 26.0156 44C28.4636 44 30.7311 42.6687 31.9527 40.5613C31.9785 40.5621 32.0046 40.5625 32.0312 40.5625C35.2921 40.5625 38.0469 37.6896 38.0469 34.2891C38.0469 33.9995 38.0214 33.7018 37.9696 33.3883C39.117 32.2566 39.7656 30.7327 39.7656 29.1328C39.7656 27.8991 39.3768 26.6983 38.659 25.6852ZM19.1406 13.0093C18.6346 12.7158 18.0478 12.5469 17.4219 12.5469C16.9472 12.5469 16.5625 12.9316 16.5625 13.4062C16.5625 13.8809 16.9472 14.2656 17.4219 14.2656C18.3696 14.2656 19.1406 15.0367 19.1406 15.9844V32.327C17.8798 30.8969 16.0363 29.9922 13.9844 29.9922C13.5097 29.9922 13.125 30.3769 13.125 30.8516C13.125 31.3262 13.5097 31.7109 13.9844 31.7109C16.8275 31.7109 19.1406 34.024 19.1406 36.8672C19.1406 39.8019 16.7793 42.2812 13.9844 42.2812C11.9948 42.2812 10.1632 41.1047 9.31806 39.2837C9.16225 38.9482 8.80939 38.7503 8.44149 38.7917C8.38073 38.7986 8.32032 38.8067 8.25991 38.815C5.81413 39.1494 3.05983 36.3799 3.80542 33.2817C3.88199 32.9635 3.77113 32.6295 3.51959 32.4202C2.52409 31.5918 1.95312 30.3936 1.95312 29.1328C1.95312 28.3533 2.17355 27.5904 2.58373 26.9215C3.61447 27.7662 4.89657 28.2734 6.25 28.2734C6.72463 28.2734 7.10938 27.8887 7.10938 27.4141C7.10938 26.9394 6.72463 26.5547 6.25 26.5547C3.91774 26.5547 1.95312 24.426 1.95312 22C1.95312 20.5283 2.70327 19.1745 3.95994 18.3784C4.34709 18.1332 4.47367 17.6272 4.24757 17.2286C3.86558 16.5549 3.67188 15.8471 3.67188 15.125C3.67188 12.8055 5.56267 10.5703 7.96875 10.5703C10.2578 10.5703 12.2656 12.6987 12.2656 15.125C12.2656 15.5996 12.6504 15.9844 13.125 15.9844C13.5996 15.9844 13.9844 15.5996 13.9844 15.125C13.9844 11.7245 11.2296 8.85156 7.96875 8.85156C7.68103 8.85156 7.39486 8.87485 7.11152 8.91894C7.11109 8.89634 7.10938 8.87434 7.10938 8.85156C7.10938 6.9337 8.6663 5.41406 10.5469 5.41406C11.4649 5.41406 12.3284 5.77165 12.9782 6.42082C13.314 6.75623 13.858 6.75589 14.1935 6.42022C14.529 6.08437 14.5287 5.5403 14.1929 5.20489C13.4089 4.42174 12.4173 3.92227 11.3427 3.75676C12.1005 2.63175 13.3608 1.71875 14.8438 1.71875C17.1328 1.71875 19.1406 3.84708 19.1406 6.27344V13.0093ZM33.75 28.2734C35.1035 28.2734 36.3856 27.7661 37.4164 26.9217C37.8264 27.5906 38.0469 28.3534 38.0469 29.1328C38.0469 30.3936 37.4759 31.5918 36.4805 32.4202C36.2289 32.6295 36.1181 32.9636 36.1947 33.2817C36.2858 33.6601 36.3281 33.9802 36.3281 34.289C36.3281 36.9565 33.9154 39.1123 31.7402 38.815C31.6798 38.8067 31.6193 38.7985 31.5585 38.7917C31.1901 38.75 30.8377 38.9482 30.682 39.2837C29.8369 41.1047 28.0052 42.2812 26.0156 42.2812C23.2207 42.2812 20.8594 39.8019 20.8594 36.8672C20.8594 34.024 23.1725 31.7109 26.0156 31.7109C26.4902 31.7109 26.875 31.3262 26.875 30.8516C26.875 30.3769 26.4902 29.9922 26.0156 29.9922C23.9637 29.9922 22.1202 30.8969 20.8594 32.327V15.9844C20.8594 15.0367 21.6304 14.2656 22.5781 14.2656C23.0527 14.2656 23.4375 13.8809 23.4375 13.4062C23.4375 12.9316 23.0527 12.5469 22.5781 12.5469C21.9522 12.5469 21.3654 12.7158 20.8594 13.0093V6.27344C20.8594 3.84708 22.8672 1.71875 25.1562 1.71875C26.6392 1.71875 27.8994 2.63175 28.6573 3.75667C27.5827 3.92219 26.5911 4.42166 25.8071 5.2048C25.4712 5.54022 25.4709 6.08429 25.8063 6.42013C26.1417 6.75598 26.6859 6.75623 27.0216 6.42082C27.6717 5.77165 28.5351 5.41406 29.4531 5.41406C31.3431 5.41406 32.8906 6.94263 32.8906 8.85156C32.8906 8.87425 32.8889 8.89634 32.8885 8.91894C32.6051 8.87485 32.319 8.85156 32.0312 8.85156C28.7704 8.85156 26.0156 11.7245 26.0156 15.125C26.0156 15.5996 26.4005 15.9844 26.875 15.9844C27.3495 15.9844 27.7344 15.5996 27.7344 15.125C27.7344 12.6987 29.7422 10.5703 32.0312 10.5703C34.436 10.5703 36.3281 12.8044 36.3281 15.125C36.3281 15.8471 36.1344 16.5549 35.7524 17.2286C35.5264 17.6272 35.653 18.1332 36.0401 18.3784C37.2967 19.1745 38.0469 20.5283 38.0469 22C38.0469 24.4347 36.0754 26.5547 33.75 26.5547C33.2755 26.5547 32.8906 26.9394 32.8906 27.4141C32.8906 27.8887 33.2755 28.2734 33.75 28.2734Z" fill="url(#paint0_linear_58_15)" fill-opacity="0.6"/>
<defs>
<linearGradient id="paint0_linear_58_15" x1="20" y1="0" x2="20" y2="44" gradientUnits="userSpaceOnUse">
<stop stop-color="#1A76DC"/>
<stop offset="1" stop-color="#000FA8"/>
</linearGradient>
</defs>
</svg>
