<svg width="23" height="23" viewBox="0 0 23 23" fill="none" xmlns="http://www.w3.org/2000/svg">
<g clip-path="url(#clip0_54_68)">
<path d="M22.9956 8.79368C22.9932 8.76726 22.988 8.74116 22.9799 8.71587C22.9746 8.69327 22.9673 8.67121 22.958 8.64992C22.9473 8.62912 22.9345 8.60944 22.9197 8.59125C22.9049 8.56964 22.8878 8.54974 22.8687 8.53181C22.8626 8.52647 22.8599 8.51915 22.8534 8.5138L19.1667 5.65056V2.68305C19.1667 2.04791 18.6518 1.53299 18.0167 1.53299H13.8623L12.1989 0.241465C11.7879 -0.0790236 11.2117 -0.0790236 10.8008 0.241465L9.137 1.53299H4.9826C4.34746 1.53299 3.83254 2.04787 3.83254 2.68305V5.6506L0.147011 8.51384C0.140497 8.51924 0.137802 8.52651 0.131692 8.53186C0.112599 8.54974 0.0954833 8.56969 0.0807033 8.59129C0.0659681 8.60949 0.0531198 8.62912 0.042383 8.64997C0.0330837 8.67121 0.025806 8.69332 0.0205498 8.71591C0.0125534 8.74085 0.00729723 8.76654 0.0048264 8.7926C0.0048264 8.80064 0.000244141 8.80756 0.000244141 8.8156V21.8507C0.00078323 22.0945 0.07967 22.3317 0.225269 22.5273C0.22756 22.5307 0.227965 22.5349 0.230615 22.538C0.233311 22.5411 0.239061 22.5445 0.242879 22.5487C0.458246 22.8321 0.7932 22.9992 1.14913 23.0007H21.8502C22.2075 22.9996 22.5438 22.8318 22.7595 22.5469C22.7625 22.543 22.7672 22.5419 22.7698 22.538C22.7725 22.5342 22.7729 22.5308 22.7752 22.5273C22.9208 22.3317 22.9997 22.0945 23.0002 21.8507V8.81668C23.0002 8.80864 22.996 8.80172 22.9956 8.79368ZM11.2696 0.846369C11.4035 0.739989 11.5931 0.739989 11.7269 0.846369L12.6113 1.53295H10.3879L11.2696 0.846369ZM1.24572 22.234L11.2696 14.4477C11.4036 14.3415 11.5931 14.3415 11.727 14.4477L21.7535 22.234H1.24572ZM22.2335 21.6364L12.1989 13.8428C11.7878 13.5226 11.2118 13.5226 10.8008 13.8428L0.765751 21.6364V9.40051L7.04776 14.2787C7.21515 14.4085 7.45603 14.378 7.58582 14.2106C7.7156 14.0432 7.68515 13.8024 7.51776 13.6726L1.1357 8.71699L3.83259 6.62119V9.58335C3.83259 9.79508 4.00424 9.96669 4.21592 9.96669C4.42765 9.96669 4.59926 9.79504 4.59926 9.58335V2.683C4.59926 2.47128 4.77087 2.29967 4.9826 2.29967H18.0166C18.2283 2.29967 18.3999 2.47128 18.3999 2.683V9.58335C18.3999 9.79508 18.5715 9.96669 18.7832 9.96669C18.995 9.96669 19.1666 9.79504 19.1666 9.58335V6.62119L21.8635 8.71699L15.4703 13.6814C15.3603 13.7648 15.3036 13.9008 15.3218 14.0376C15.3401 14.1744 15.4304 14.2908 15.5584 14.3424C15.6864 14.3941 15.8323 14.3729 15.9403 14.2871L22.2334 9.40051V21.6364H22.2335Z" fill="white"/>
<path d="M16.0996 9.19918V7.66578C16.0996 5.12514 14.04 3.06555 11.4994 3.06555C8.95876 3.06555 6.89917 5.12514 6.89917 7.66578C6.89917 10.2064 8.95876 12.266 11.4994 12.266C11.7111 12.266 11.8827 12.0944 11.8827 11.8827C11.8827 11.671 11.7111 11.4993 11.4994 11.4993C9.38222 11.4993 7.66589 9.78301 7.66589 7.66583C7.66589 5.54864 9.38222 3.83232 11.4994 3.83232C13.6166 3.83232 15.3329 5.54864 15.3329 7.66583V9.19922C15.3329 9.62268 14.9896 9.96595 14.5662 9.96595C14.1427 9.96595 13.7995 9.62268 13.7995 9.19922V7.66583C13.7995 7.4541 13.6279 7.28249 13.4161 7.28249C13.2044 7.28249 13.0328 7.4541 13.0328 7.66583C13.0328 8.51269 12.3463 9.19922 11.4994 9.19922C10.6525 9.19922 9.966 8.51269 9.966 7.66583C9.966 6.81896 10.6525 6.13243 11.4994 6.13243C11.7111 6.13243 11.8827 5.96082 11.8827 5.7491C11.8827 5.53737 11.7111 5.36576 11.4994 5.36576C10.47 5.36347 9.56434 6.04546 9.28221 7.0355C9.00009 8.02554 9.41011 9.08247 10.2861 9.62317C11.1622 10.1639 12.2907 10.0567 13.0493 9.36068C13.1328 10.1714 13.8374 10.7742 14.6512 10.7311C15.4651 10.688 16.1022 10.0142 16.0996 9.19918Z" fill="white"/>
</g>
<defs>
<clipPath id="clip0_54_68">
<rect width="23" height="23" fill="white"/>
</clipPath>
</defs>
</svg>
