<svg width="21" height="21" viewBox="0 0 21 21" fill="none" xmlns="http://www.w3.org/2000/svg">
<g clip-path="url(#clip0_74_83)">
<path d="M13.0124 9.10547C11.1065 9.10547 9.55603 10.7246 9.55603 12.7148C9.55603 14.7051 11.1065 16.3242 13.0124 16.3242C14.9182 16.3242 16.4687 14.7051 16.4687 12.7148C16.4687 10.7246 14.9182 9.10547 13.0124 9.10547ZM13.0124 15.5039C11.5396 15.5039 10.3416 14.2528 10.3416 12.7148C10.3416 11.1769 11.5396 9.92578 13.0124 9.92578C14.4851 9.92578 15.6832 11.1769 15.6832 12.7148C15.6832 14.2528 14.4851 15.5039 13.0124 15.5039Z" fill="url(#paint0_linear_74_83)" fill-opacity="0.6"/>
<path d="M20.5557 18.6257L17.4386 15.3704C17.8707 14.5881 18.1181 13.6811 18.1181 12.7148C18.1181 11.2887 17.5792 9.99179 16.703 9.03401V4.42921C16.7026 4.42921 16.7023 4.42921 16.702 4.42921C16.702 4.3225 16.6631 4.21772 16.588 4.13921L12.7394 0.120163C12.6642 0.0416565 12.5637 0.00112152 12.4615 0.00112152C12.4615 0.000640869 12.4615 0.000480654 12.4617 0H2.0146C1.36485 0 0.836304 0.551949 0.836304 1.23047V19.7695C0.836304 20.4481 1.36485 21 2.0146 21H15.5248C16.1744 21 16.7031 20.4481 16.7031 19.7695V18.5362L18.6723 20.5927C18.9319 20.8638 19.273 20.9994 19.6142 20.9994C19.9552 20.9994 20.2963 20.8638 20.5559 20.5927C21.0751 20.0504 21.0751 19.1681 20.5557 18.6257V18.6257ZM13.0122 17.2266C10.63 17.2266 8.69177 15.2025 8.69177 12.7148C8.69177 10.2271 10.63 8.20312 13.0122 8.20312C15.3944 8.20312 17.3326 10.2271 17.3326 12.7148C17.3326 15.2025 15.3944 17.2266 13.0122 17.2266ZM12.8545 1.40046L15.362 4.01921H13.2472C13.0306 4.01921 12.8545 3.83512 12.8545 3.60905V1.40046ZM15.9176 19.7695C15.9176 19.9958 15.7413 20.1797 15.5248 20.1797H2.0146C1.79797 20.1797 1.62183 19.9958 1.62183 19.7695V1.23047C1.62183 1.00424 1.79797 0.820312 2.0146 0.820312H12.0689V3.60889C12.0689 4.28741 12.5975 4.83936 13.2472 4.83936H15.9174V8.33274C15.0923 7.73417 14.0909 7.38281 13.0122 7.38281C10.1967 7.38281 7.90623 9.7747 7.90623 12.7148C7.90623 13.2889 7.99399 13.8421 8.15555 14.3608H3.35599C3.1392 14.3608 2.96322 14.5444 2.96322 14.7709C2.96322 14.9973 3.1392 15.1811 3.35599 15.1811H8.37142C8.40839 15.1811 8.44429 15.1753 8.4782 15.1652C9.3294 16.8757 11.0422 18.0469 13.0122 18.0469C13.9373 18.0469 14.8059 17.7884 15.555 17.3373L15.9176 17.7159V19.7695ZM20.0003 20.0126C19.7874 20.2351 19.4408 20.2351 19.2279 20.0126L16.2138 16.8651C16.498 16.6256 16.757 16.3551 16.9863 16.0584L20.0003 19.2057C20.2134 19.4283 20.2134 19.7902 20.0003 20.0126V20.0126Z" fill="url(#paint1_linear_74_83)" fill-opacity="0.6"/>
<path d="M13.0124 10.8693C12.7955 10.8693 12.6196 11.0529 12.6196 11.2794C12.6196 11.506 12.7955 11.6896 13.0124 11.6896C13.5537 11.6896 13.9942 12.1496 13.9942 12.7148C13.9942 12.9414 14.17 13.125 14.3869 13.125C14.6039 13.125 14.7797 12.9414 14.7797 12.7148C14.7797 11.6971 13.9869 10.8693 13.0124 10.8693V10.8693Z" fill="url(#paint2_linear_74_83)" fill-opacity="0.6"/>
<path d="M6.89094 11.5169H3.35621C3.13942 11.5169 2.96344 11.7005 2.96344 11.9271C2.96344 12.1536 3.13942 12.3372 3.35621 12.3372H6.89094C7.10788 12.3372 7.28371 12.1536 7.28371 11.9271C7.28371 11.7005 7.10788 11.5169 6.89094 11.5169Z" fill="url(#paint3_linear_74_83)" fill-opacity="0.6"/>
<path d="M7.12369 8.67322H3.35621C3.13942 8.67322 2.96344 8.85683 2.96344 9.08337C2.96344 9.30976 3.13942 9.49353 3.35621 9.49353H7.12369C7.34063 9.49353 7.51645 9.30976 7.51645 9.08337C7.51645 8.85683 7.34063 8.67322 7.12369 8.67322Z" fill="url(#paint4_linear_74_83)" fill-opacity="0.6"/>
<path d="M8.29908 17.2045C8.19567 17.2045 8.09441 17.2482 8.02138 17.3246C7.94835 17.4009 7.90631 17.5066 7.90631 17.6146C7.90631 17.7225 7.94835 17.8284 8.02138 17.9045C8.09441 17.9809 8.19567 18.0248 8.29908 18.0248C8.40233 18.0248 8.50374 17.9809 8.57708 17.9045C8.65011 17.8284 8.69184 17.7225 8.69184 17.6146C8.69184 17.5066 8.65011 17.4009 8.57708 17.3246C8.50374 17.2482 8.40233 17.2045 8.29908 17.2045Z" fill="url(#paint5_linear_74_83)" fill-opacity="0.6"/>
<path d="M6.68597 17.2045H3.35621C3.13942 17.2045 2.96344 17.3881 2.96344 17.6146C2.96344 17.841 3.13942 18.0248 3.35621 18.0248H6.68597C6.90276 18.0248 7.07873 17.841 7.07873 17.6146C7.07873 17.3881 6.90291 17.2045 6.68597 17.2045Z" fill="url(#paint6_linear_74_83)" fill-opacity="0.6"/>
<path d="M3.35602 6.64978C3.45974 6.64978 3.56069 6.60588 3.63372 6.52962C3.70721 6.45287 3.74879 6.34761 3.74879 6.23962C3.74879 6.1318 3.70721 6.02605 3.63372 5.94931C3.56069 5.87305 3.45928 5.82947 3.35602 5.82947C3.25277 5.82947 3.15181 5.87305 3.07832 5.94931C3.0053 6.02557 2.96326 6.13132 2.96326 6.23962C2.96326 6.34761 3.0053 6.45335 3.07832 6.52962C3.15151 6.60588 3.25277 6.64978 3.35602 6.64978Z" fill="url(#paint7_linear_74_83)" fill-opacity="0.6"/>
<path d="M10.8913 5.82947H5.021C4.80421 5.82947 4.62823 6.01308 4.62823 6.23962C4.62823 6.46601 4.80421 6.64978 5.021 6.64978H10.8913C11.1082 6.64978 11.2841 6.46601 11.2841 6.23962C11.2841 6.01308 11.1082 5.82947 10.8913 5.82947Z" fill="url(#paint8_linear_74_83)" fill-opacity="0.6"/>
<path d="M3.35621 3.80597H10.8913C11.1083 3.80597 11.2841 3.62236 11.2841 3.39581C11.2841 3.16927 11.1083 2.98566 10.8913 2.98566H3.35621C3.13942 2.98566 2.96344 3.16927 2.96344 3.39581C2.96344 3.62236 3.13942 3.80597 3.35621 3.80597Z" fill="url(#paint9_linear_74_83)" fill-opacity="0.6"/>
</g>
<defs>
<linearGradient id="paint0_linear_74_83" x1="13.0124" y1="9.10547" x2="13.0124" y2="16.3242" gradientUnits="userSpaceOnUse">
<stop stop-color="#1A76DC"/>
<stop offset="1" stop-color="#000FA8"/>
</linearGradient>
<linearGradient id="paint1_linear_74_83" x1="10.8908" y1="0" x2="10.8908" y2="21" gradientUnits="userSpaceOnUse">
<stop stop-color="#1A76DC"/>
<stop offset="1" stop-color="#000FA8"/>
</linearGradient>
<linearGradient id="paint2_linear_74_83" x1="13.6997" y1="10.8693" x2="13.6997" y2="13.125" gradientUnits="userSpaceOnUse">
<stop stop-color="#1A76DC"/>
<stop offset="1" stop-color="#000FA8"/>
</linearGradient>
<linearGradient id="paint3_linear_74_83" x1="5.12357" y1="11.5169" x2="5.12357" y2="12.3372" gradientUnits="userSpaceOnUse">
<stop stop-color="#1A76DC"/>
<stop offset="1" stop-color="#000FA8"/>
</linearGradient>
<linearGradient id="paint4_linear_74_83" x1="5.23995" y1="8.67322" x2="5.23995" y2="9.49353" gradientUnits="userSpaceOnUse">
<stop stop-color="#1A76DC"/>
<stop offset="1" stop-color="#000FA8"/>
</linearGradient>
<linearGradient id="paint5_linear_74_83" x1="8.29908" y1="17.2045" x2="8.29908" y2="18.0248" gradientUnits="userSpaceOnUse">
<stop stop-color="#1A76DC"/>
<stop offset="1" stop-color="#000FA8"/>
</linearGradient>
<linearGradient id="paint6_linear_74_83" x1="5.02109" y1="17.2045" x2="5.02109" y2="18.0248" gradientUnits="userSpaceOnUse">
<stop stop-color="#1A76DC"/>
<stop offset="1" stop-color="#000FA8"/>
</linearGradient>
<linearGradient id="paint7_linear_74_83" x1="3.35602" y1="5.82947" x2="3.35602" y2="6.64978" gradientUnits="userSpaceOnUse">
<stop stop-color="#1A76DC"/>
<stop offset="1" stop-color="#000FA8"/>
</linearGradient>
<linearGradient id="paint8_linear_74_83" x1="7.95615" y1="5.82947" x2="7.95615" y2="6.64978" gradientUnits="userSpaceOnUse">
<stop stop-color="#1A76DC"/>
<stop offset="1" stop-color="#000FA8"/>
</linearGradient>
<linearGradient id="paint9_linear_74_83" x1="7.12376" y1="2.98566" x2="7.12376" y2="3.80597" gradientUnits="userSpaceOnUse">
<stop stop-color="#1A76DC"/>
<stop offset="1" stop-color="#000FA8"/>
</linearGradient>
<clipPath id="clip0_74_83">
<rect width="20.1096" height="21" fill="white" transform="translate(0.797241)"/>
</clipPath>
</defs>
</svg>
