<svg width="23" height="23" viewBox="0 0 23 23" fill="none" xmlns="http://www.w3.org/2000/svg">
<path d="M16.3283 0H6.67179C5.74103 0 4.98315 0.757875 4.98315 1.68864V21.3117C4.98315 22.2429 5.74103 23.0007 6.67179 23.0007H16.3279C17.259 23.0007 18.0169 22.2429 18.0169 21.3121V1.68864C18.0169 0.757875 17.259 0 16.3283 0ZM5.74985 3.06677H17.2502V17.6339H5.74985V3.06677ZM6.67179 0.766691H16.3279C16.8366 0.766691 17.2502 1.18032 17.2502 1.68864V2.30007H5.74985V1.68864C5.74985 1.18032 6.16348 0.766691 6.67179 0.766691ZM16.3283 22.2341H6.67179C6.16348 22.2341 5.74985 21.8204 5.74985 21.3121V18.4006H17.2502V21.3121C17.2502 21.8204 16.8366 22.2341 16.3283 22.2341Z" fill="white"/>
<path d="M11.4999 18.7839C10.6543 18.7839 9.96655 19.4717 9.96655 20.3173C9.96655 21.163 10.6543 21.8507 11.4999 21.8507C12.3456 21.8507 13.0333 21.163 13.0333 20.3173C13.0333 19.4717 12.3456 18.7839 11.4999 18.7839ZM11.4999 21.084C11.0771 21.084 10.7332 20.7401 10.7332 20.3173C10.7332 19.8945 11.0771 19.5506 11.4999 19.5506C11.9228 19.5506 12.2666 19.8945 12.2666 20.3173C12.2666 20.7401 11.9228 21.084 11.4999 21.084Z" fill="white"/>
<path d="M9.9666 1.91672H11.5C11.712 1.91672 11.8833 1.74536 11.8833 1.53337C11.8833 1.32138 11.712 1.15002 11.5 1.15002H9.9666C9.75461 1.15002 9.58325 1.32138 9.58325 1.53337C9.58325 1.74536 9.75461 1.91672 9.9666 1.91672Z" fill="white"/>
<path d="M12.6501 1.91672H13.0334C13.2454 1.91672 13.4168 1.74536 13.4168 1.53337C13.4168 1.32138 13.2454 1.15002 13.0334 1.15002H12.6501C12.4381 1.15002 12.2667 1.32138 12.2667 1.53337C12.2667 1.74536 12.4381 1.91672 12.6501 1.91672Z" fill="white"/>
<path d="M21.7016 1.75145C21.5517 1.60157 21.3094 1.60157 21.1595 1.75145C21.0096 1.90134 21.0096 2.14362 21.1595 2.29351C22.5917 3.72568 22.5917 6.05604 21.1595 7.48861C21.0096 7.63849 21.0096 7.88077 21.1595 8.03066C21.2343 8.10541 21.3324 8.14298 21.4306 8.14298C21.5287 8.14298 21.6268 8.10541 21.7016 8.03066C23.4328 6.29985 23.4328 3.48264 21.7016 1.75145Z" fill="white"/>
<path d="M20.0873 2.62401C19.9374 2.47412 19.6952 2.47412 19.5453 2.62401C19.3954 2.7739 19.3954 3.01618 19.5453 3.16606C20.0195 3.64026 20.2805 4.27202 20.2805 4.9444C20.2805 5.61679 20.0195 6.24816 19.5453 6.72236C19.3954 6.87225 19.3954 7.11453 19.5453 7.26441C19.62 7.33917 19.7182 7.37673 19.8163 7.37673C19.9144 7.37673 20.0126 7.33917 20.0873 7.26441C20.7064 6.64569 21.0472 5.8215 21.0472 4.9444C21.0472 4.06731 20.7068 3.24273 20.0873 2.62401Z" fill="white"/>
<path d="M1.84044 2.29351C1.99033 2.14362 1.99033 1.90134 1.84044 1.75145C1.69055 1.60157 1.44828 1.60157 1.29839 1.75145C-0.432797 3.48264 -0.432797 6.29947 1.29839 8.03066C1.37314 8.10541 1.47128 8.14298 1.56942 8.14298C1.66755 8.14298 1.76569 8.10541 1.84044 8.03066C1.99033 7.88077 1.99033 7.63849 1.84044 7.48861C0.40788 6.05643 0.40788 3.72607 1.84044 2.29351Z" fill="white"/>
<path d="M3.45471 2.51818C3.30482 2.36829 3.06254 2.36829 2.91266 2.51818C2.29355 3.1369 1.95276 3.96109 1.95276 4.83819C1.95276 5.71528 2.29355 6.53947 2.91266 7.15858C2.98741 7.23333 3.08555 7.2709 3.18368 7.2709C3.28182 7.2709 3.37996 7.23333 3.45471 7.15858C3.6046 7.00869 3.6046 6.76642 3.45471 6.61653C2.98051 6.14233 2.71945 5.51057 2.71945 4.83819C2.71945 4.1658 2.98013 3.53443 3.45471 3.06023C3.60421 2.91072 3.60421 2.66807 3.45471 2.51818Z" fill="white"/>
</svg>
